<svg xmlns="http://www.w3.org/2000/svg" xmlns:xlink="http://www.w3.org/1999/xlink" width="1920" zoomAndPan="magnify" viewBox="0 0 1440 809.999993" height="1080" preserveAspectRatio="xMidYMid meet" version="1.0"><defs><g/><clipPath id="06cd22c41b"><path d="M 27.054688 431 L 1413 431 L 1413 599 L 27.054688 599 Z M 27.054688 431 " clip-rule="nonzero"/></clipPath><clipPath id="818d91d323"><path d="M 117 172.015625 L 517 172.015625 L 517 222 L 117 222 Z M 117 172.015625 " clip-rule="nonzero"/></clipPath><clipPath id="05d162eec9"><path d="M 515 172.015625 L 586 172.015625 L 586 222 L 515 222 Z M 515 172.015625 " clip-rule="nonzero"/></clipPath><clipPath id="3a11669271"><path d="M 574 172.015625 L 645 172.015625 L 645 222 L 574 222 Z M 574 172.015625 " clip-rule="nonzero"/></clipPath><clipPath id="1c3c9adf52"><path d="M 633 172.015625 L 704 172.015625 L 704 222 L 633 222 Z M 633 172.015625 " clip-rule="nonzero"/></clipPath><clipPath id="40a7d3f045"><path d="M 693 172.015625 L 763 172.015625 L 763 222 L 693 222 Z M 693 172.015625 " clip-rule="nonzero"/></clipPath><clipPath id="5bc326aac5"><path d="M 0.00390625 0 L 404.910156 0 L 404.910156 293.738281 L 0.00390625 293.738281 Z M 0.00390625 0 " clip-rule="nonzero"/></clipPath><clipPath id="a01c3d76f4"><path d="M 1035 516.25 L 1439.992188 516.25 L 1439.992188 810 L 1035 810 Z M 1035 516.25 " clip-rule="nonzero"/></clipPath></defs><rect x="-144" width="1728" fill="#ffffff" y="-80.999999" height="971.999992" fill-opacity="1"/><rect x="-144" width="1728" fill="#ffffff" y="-80.999999" height="971.999992" fill-opacity="1"/><rect x="-144" width="1728" fill="#004aad" y="-80.999999" height="971.999992" fill-opacity="1"/><g clip-path="url(#06cd22c41b)"><path fill="#00cbff" d="M 490.921875 589.609375 C 493.410156 589.609375 495.417969 591.613281 495.417969 594.101562 C 495.417969 596.589844 493.410156 598.59375 490.921875 598.59375 L 79.878906 598.59375 C 65.316406 598.59375 52.089844 592.617188 42.46875 583.035156 C 32.847656 573.453125 26.90625 560.195312 26.90625 545.636719 L 26.90625 464.683594 C 26.90625 462.195312 28.910156 460.1875 31.398438 460.1875 C 33.886719 460.1875 35.894531 462.195312 35.894531 464.683594 L 35.894531 545.636719 C 35.894531 557.707031 40.835938 568.699219 48.820312 576.683594 C 56.773438 584.667969 67.769531 589.605469 79.878906 589.605469 L 490.921875 589.605469 Z M 1403.804688 435.976562 C 1403.804688 433.488281 1405.808594 431.484375 1408.296875 431.484375 C 1410.789062 431.484375 1412.792969 433.488281 1412.792969 435.976562 L 1412.792969 545.636719 C 1412.792969 560.195312 1406.8125 573.417969 1397.226562 583.035156 C 1387.605469 592.652344 1374.382812 598.59375 1359.820312 598.59375 L 1204.019531 598.59375 C 1201.53125 598.59375 1199.523438 596.589844 1199.523438 594.101562 C 1199.523438 591.613281 1201.53125 589.609375 1204.019531 589.609375 L 1359.820312 589.609375 C 1371.929688 589.609375 1382.925781 584.667969 1390.875 576.722656 C 1398.824219 568.773438 1403.765625 557.78125 1403.765625 545.675781 L 1403.765625 435.976562 Z M 1403.804688 435.976562 " fill-opacity="1" fill-rule="nonzero"/></g><path fill="#00cbff" d="M 1359.855469 201.835938 L 79.878906 201.835938 C 73.042969 201.835938 66.839844 204.621094 62.34375 209.113281 C 57.847656 213.605469 55.0625 219.808594 55.0625 226.640625 L 55.0625 545.675781 C 55.0625 552.398438 57.773438 558.523438 62.121094 562.980469 L 62.34375 563.203125 C 66.839844 567.699219 73.042969 570.484375 79.878906 570.484375 L 1359.820312 570.484375 C 1366.65625 570.484375 1372.859375 567.699219 1377.355469 563.203125 C 1381.847656 558.710938 1384.636719 552.507812 1384.636719 545.675781 L 1384.636719 226.640625 C 1384.636719 219.808594 1381.847656 213.605469 1377.355469 209.113281 C 1372.894531 204.621094 1366.691406 201.835938 1359.855469 201.835938 M 79.878906 192.808594 L 1359.820312 192.808594 C 1369.105469 192.808594 1377.539062 196.636719 1383.707031 202.761719 C 1389.835938 208.890625 1393.660156 217.320312 1393.660156 226.640625 L 1393.660156 545.675781 C 1393.660156 554.960938 1389.871094 563.425781 1383.742188 569.554688 C 1377.613281 575.679688 1369.144531 579.46875 1359.855469 579.46875 L 79.878906 579.46875 C 70.589844 579.46875 62.121094 575.679688 55.992188 569.554688 L 55.730469 569.292969 C 49.75 563.167969 46.035156 554.847656 46.035156 545.675781 L 46.035156 226.640625 C 46.035156 217.355469 49.824219 208.890625 55.953125 202.761719 C 62.082031 196.636719 70.589844 192.808594 79.878906 192.808594 Z M 79.878906 192.808594 " fill-opacity="1" fill-rule="nonzero"/><g clip-path="url(#818d91d323)"><path fill="#00cbff" d="M 154.472656 172.941406 L 517 172.941406 L 480.296875 221.703125 L 117.769531 221.703125 Z M 154.472656 172.941406 " fill-opacity="1" fill-rule="evenodd"/></g><g clip-path="url(#05d162eec9)"><path fill="#00cbff" d="M 551.996094 172.941406 L 585.09375 172.941406 L 548.390625 221.703125 L 515.292969 221.703125 Z M 551.996094 172.941406 " fill-opacity="1" fill-rule="evenodd"/></g><g clip-path="url(#3a11669271)"><path fill="#00cbff" d="M 611.246094 172.941406 L 644.382812 172.941406 L 607.644531 221.703125 L 574.542969 221.703125 Z M 611.246094 172.941406 " fill-opacity="1" fill-rule="evenodd"/></g><g clip-path="url(#1c3c9adf52)"><path fill="#00cbff" d="M 670.496094 172.941406 L 703.632812 172.941406 L 666.894531 221.703125 L 633.796875 221.703125 Z M 670.496094 172.941406 " fill-opacity="1" fill-rule="evenodd"/></g><g clip-path="url(#40a7d3f045)"><path fill="#00cbff" d="M 729.785156 172.941406 L 762.886719 172.941406 L 726.144531 221.703125 L 693.046875 221.703125 Z M 729.785156 172.941406 " fill-opacity="1" fill-rule="evenodd"/></g><path fill="#00cbff" d="M 955.535156 550.578125 L 988.636719 550.578125 L 951.933594 599.335938 L 918.796875 599.335938 Z M 955.535156 550.578125 " fill-opacity="1" fill-rule="evenodd"/><path fill="#00cbff" d="M 1014.789062 550.578125 L 1047.886719 550.578125 L 1011.183594 599.335938 L 978.046875 599.335938 Z M 1014.789062 550.578125 " fill-opacity="1" fill-rule="evenodd"/><path fill="#00cbff" d="M 1074.039062 550.578125 L 1107.136719 550.578125 L 1070.433594 599.335938 L 1037.335938 599.335938 Z M 1074.039062 550.578125 " fill-opacity="1" fill-rule="evenodd"/><path fill="#00cbff" d="M 1133.289062 550.578125 L 1166.425781 550.578125 L 1129.6875 599.335938 L 1096.585938 599.335938 Z M 1133.289062 550.578125 " fill-opacity="1" fill-rule="evenodd"/><g clip-path="url(#5bc326aac5)"><path fill="#1be2e2" d="M 0.00390625 293.667969 L 7.582031 293.667969 L 7.582031 263.386719 L 23.660156 247.296875 L 23.660156 182.664062 L 41.070312 165.242188 L 41.070312 68.554688 L 89.6875 68.554688 L 119.621094 38.597656 L 317.3125 38.597656 L 348.378906 7.511719 L 404.988281 7.511719 L 404.988281 -0.0703125 L 0.00390625 -0.0703125 Z M 16.082031 244.15625 L 7.582031 252.660156 L 7.582031 198.753906 L 16.082031 190.246094 Z M 314.175781 31.015625 L 116.484375 31.015625 L 86.546875 60.972656 L 33.492188 60.972656 L 33.492188 162.101562 L 7.582031 188.027344 L 7.582031 7.511719 L 337.664062 7.511719 Z M 314.175781 31.015625 " fill-opacity="1" fill-rule="nonzero"/></g><g clip-path="url(#a01c3d76f4)"><path fill="#1be2e2" d="M 1439.988281 516.320312 L 1432.410156 516.320312 L 1432.410156 546.605469 L 1416.332031 562.691406 L 1416.332031 627.324219 L 1398.921875 644.746094 L 1398.921875 741.433594 L 1350.304688 741.433594 L 1320.371094 771.390625 L 1122.679688 771.390625 L 1091.617188 802.476562 L 1035.007812 802.476562 L 1035.007812 810.058594 L 1439.988281 810.058594 Z M 1423.910156 565.832031 L 1432.410156 557.328125 L 1432.410156 611.238281 L 1423.910156 619.742188 Z M 1125.820312 778.972656 L 1323.511719 778.972656 L 1353.445312 749.019531 L 1406.5 749.019531 L 1406.5 647.886719 L 1432.410156 621.960938 L 1432.410156 802.476562 L 1102.332031 802.476562 Z M 1125.820312 778.972656 " fill-opacity="1" fill-rule="nonzero"/></g><g fill="#ffde59" fill-opacity="1"><g transform="translate(111.771218, 522.375023)"><g><path d="M 185.359375 -247.617188 L 124.515625 -72.515625 L 61.902344 -247.617188 L 2.828125 -247.617188 L 99.398438 0 L 149.984375 0 L 243.726562 -247.617188 Z M 185.359375 -247.617188 "/></g></g></g><g fill="#ffde59" fill-opacity="1"><g transform="translate(360.094473, 522.375023)"><g><path d="M 234.527344 0 L 141.140625 -128.761719 L 225.332031 -247.617188 L 163.074219 -247.617188 L 81.714844 -133.003906 L 81.714844 -247.617188 L 28.300781 -247.617188 L 28.300781 0 L 81.714844 0 L 81.714844 -120.625 L 169.085938 0 Z M 234.527344 0 "/></g></g></g><g fill="#7ddcfa" fill-opacity="1"><g transform="translate(644.731212, 523.020205)"><g><path d="M 121.6875 -247.617188 L 28.300781 -247.617188 L 28.300781 0 L 121.6875 0 C 194.554688 0 247.261719 -52 247.261719 -123.808594 C 247.261719 -195.617188 194.554688 -247.617188 121.6875 -247.617188 Z M 120.625 -49.523438 L 81.714844 -49.523438 L 81.714844 -197.738281 L 120.625 -197.738281 C 163.074219 -197.738281 192.433594 -167.671875 192.433594 -123.808594 C 192.433594 -80.652344 163.074219 -49.523438 120.625 -49.523438 Z M 120.625 -49.523438 "/></g></g></g><g fill="#7ddcfa" fill-opacity="1"><g transform="translate(906.851658, 523.020205)"><g><path d="M 81.714844 -49.523438 L 81.714844 -100.460938 L 167.671875 -100.460938 L 167.671875 -148.925781 L 81.714844 -148.925781 L 81.714844 -198.09375 L 176.871094 -198.09375 L 176.871094 -247.617188 L 28.300781 -247.617188 L 28.300781 0 L 180.761719 0 L 180.761719 -49.523438 Z M 81.714844 -49.523438 "/></g></g></g><g fill="#7ddcfa" fill-opacity="1"><g transform="translate(1104.59165, 523.020205)"><g><path d="M 185.359375 -247.617188 L 124.515625 -72.515625 L 61.902344 -247.617188 L 2.828125 -247.617188 L 99.402344 0 L 149.984375 0 L 243.726562 -247.617188 Z M 185.359375 -247.617188 "/></g></g></g></svg>